<svg width="512" height="512" viewBox="0 0 512 512" xmlns="http://www.w3.org/2000/svg">
  <defs>
    <linearGradient id="bgGradient" x1="0%" y1="0%" x2="100%" y2="100%">
      <stop offset="0%" style="stop-color:#FF6B35;stop-opacity:1" />
      <stop offset="100%" style="stop-color:#FFA166;stop-opacity:1" />
    </linearGradient>
  </defs>
  
  <!-- Rounded square background -->
  <rect width="512" height="512" rx="120" fill="url(#bgGradient)"/>
  
  <!-- White spiral with center star -->
  <g transform="translate(256, 256)">
    <!-- Spiral curves -->
    <path d="M -20,0 Q -80,-60 -90,-100 Q -95,-130 -70,-150 Q -40,-170 0,-165 Q 40,-160 70,-140 Q 100,-115 100,-75 Q 100,-35 75,-5 Q 50,20 15,25 Q -15,28 -40,15 Q -60,5 -65,-20 Q -68,-40 -55,-55 Q -40,-68 -20,-65 Q 0,-62 12,-48 Q 22,-35 20,-18 Q 18,-5 10,2 Q 2,8 -8,6 Q -15,4 -18,-2" 
          fill="none" stroke="white" stroke-width="22" stroke-linecap="round" opacity="0.95"/>
    
    <path d="M 20,0 Q 80,60 90,100 Q 95,130 70,150 Q 40,170 0,165 Q -40,160 -70,140 Q -100,115 -100,75 Q -100,35 -75,5 Q -50,-20 -15,-25 Q 15,-28 40,-15 Q 60,-5 65,20 Q 68,40 55,55 Q 40,68 20,65 Q 0,62 -12,48 Q -22,35 -20,18 Q -18,5 -10,-2 Q -2,-8 8,-6 Q 15,-4 18,2" 
          fill="none" stroke="white" stroke-width="22" stroke-linecap="round" opacity="0.95"/>
    
    <path d="M 0,-20 Q 60,-80 100,-90 Q 130,-95 150,-70 Q 170,-40 165,0 Q 160,40 140,70 Q 115,100 75,100 Q 35,100 5,75 Q -20,50 -25,15 Q -28,-15 -15,-40 Q -5,-60 20,-65 Q 40,-68 55,-55 Q 68,-40 65,-20 Q 62,0 48,12 Q 35,22 18,20 Q 5,18 -2,10 Q -8,2 -6,-8 Q -4,-15 2,-18" 
          fill="none" stroke="white" stroke-width="22" stroke-linecap="round" opacity="0.95"/>
    
    <path d="M 0,20 Q -60,80 -100,90 Q -130,95 -150,70 Q -170,40 -165,0 Q -160,-40 -140,-70 Q -115,-100 -75,-100 Q -35,-100 -5,-75 Q 20,-50 25,-15 Q 28,15 15,40 Q 5,60 -20,65 Q -40,68 -55,55 Q -68,40 -65,20 Q -62,0 -48,-12 Q -35,-22 -18,-20 Q -5,-18 2,-10 Q 8,-2 6,8 Q 4,15 -2,18" 
          fill="none" stroke="white" stroke-width="22" stroke-linecap="round" opacity="0.95"/>
    
    <!-- Center star -->
    <path d="M 0,-25 L 6,-8 L 24,-8 L 10,3 L 15,20 L 0,10 L -15,20 L -10,3 L -24,-8 L -6,-8 Z" 
          fill="white" opacity="0.95"/>
  </g>
</svg>
